<svg width="320" height="320" viewBox="0 0 320 320" fill="none" xmlns="http://www.w3.org/2000/svg">
<g clip-path="url(#clip0_106_21270)">
<path opacity="0.4" d="M202.245 81.3876C202.103 76.188 208.192 73.2824 212.144 76.6644L234.265 95.5946C238.451 99.1768 240.973 104.327 241.238 109.83L247.044 230.653C247.184 233.575 245.494 236.275 242.804 237.425L224.529 245.24C216.092 248.848 206.674 242.816 206.422 233.644L202.245 81.3876Z" fill="#1ED760"/>
<path opacity="0.4" d="M127.238 57.0463C127.16 35.1314 151.956 22.3621 169.751 35.1531C176.828 40.2399 180.995 48.4456 180.927 57.1607L179.337 260.524C179.294 265.978 174.889 270.393 169.434 270.445L143.09 270.701C134.77 270.782 127.975 264.075 127.945 255.755L127.238 57.0463Z" fill="#1ED760"/>
<path d="M121.633 19.3457C124.353 11.8734 133.457 9.06477 139.914 13.706L171.193 36.1897C177.014 40.3736 179.341 47.9181 176.89 54.654L100.36 264.918C97.9081 271.654 91.2756 275.937 84.1274 275.401L45.7137 272.518C37.7841 271.923 32.6156 263.92 35.3353 256.448L121.633 19.3457Z" fill="#1ED760"/>
<path opacity="0.85" d="M196.939 81.4358C199.327 74.8748 207.533 72.7186 212.838 77.2582L233.452 94.8993C237.886 98.6937 239.501 104.84 237.505 110.324L182.578 261.235C180.582 266.719 175.394 270.39 169.558 270.446L142.427 270.71C135.446 270.777 130.546 263.851 132.934 257.29L196.939 81.4358Z" fill="#1ED760"/>
<path opacity="0.7" d="M244.409 149.832C246.804 143.251 255.901 142.706 259.064 148.955L268.186 166.977C269.684 169.936 269.891 173.383 268.756 176.5L249.055 230.629C247.92 233.746 245.546 236.254 242.497 237.558L223.925 245.5C217.485 248.253 210.866 241.989 213.262 235.408L244.409 149.832Z" fill="#1ED760"/>
</g>
<defs>
<clipPath id="clip0_106_21270">
<rect width="320" height="320" fill="white"/>
</clipPath>
</defs>
</svg>
